<?xml version="1.0" encoding="UTF-8"?>
<svg xmlns="http://www.w3.org/2000/svg" viewBox="0 0 332.1 376.01">
  <defs>
    <style>
      .logo-blue { fill: #306998; }
      .logo-yellow { fill: #ffd43b; }
      #full {
        transform-box: fill-box;
        transform-origin: center;
        animation: spin 2s infinite
      }
      @keyframes spin {
      	from {
      	  transform: perspective(1000px) rotateY(0deg);
      	} to {
      	  transform: perspective(1000px) rotateY(360deg);
      	}
      }
    </style>
  </defs>
  <g id="full">
    <path class="logo-yellow" d="M250.01,224.26l-68.17-39.12c-5.92-3.15-8.86-8.25-8.84-15.31V6.53c.05-6.01,3.01-8.27,8.84-5.1l52.52,30.32c6.39,3.77,9.21,9.32,9.35,16.2v81.05c.3,15.26,17.3,22.26,17.68,10.21V57.56c-.08-6.08,2.79-7.9,8.84-5.1l53.03,30.62c6.76,4.76,8.73,9.95,8.84,15.31v172.09c0,7.19-3.84,13.83-10.08,17.42l-149.38,85.86c-6.37,3.25-12.2,2.77-17.68,0l-53.03-30.62c-4.77-2.99-6.44-6.2,0-10.21l150.07-87.66c7.56-4.71,5.94-16.48-2-21Z"/>
    <path class="logo-blue" d="M229.7,232.02l-60.47-34.86c-6.27-3.61-10.13-10.3-10.13-17.54V109.26c-.07-7.17-3.41-7.79-8.49-4.9l-71.42,41.23c-8.19,4.67-14.19-12.33,0-20.41l70.9-40.94c5.73-3.74,9.04-8.77,9-15.59V7.2c-.03-6.79-3.1-7.97-8.49-4.9L8.49,84.36C2.72,88.11,.1,93.09,0,99.06v164.12c.04,6.25,3.02,7.63,8.49,4.9l71.42-41.23c12.1-6.57,18.93,9.06,8.38,14.98l-71.42,41.23c-5.48,3.07-5.48,6.34,0,9.8l53.74,31.03c5.4,3.39,9.4,3.39,16.97,0l142.13-82.06h0c3.31-2.56,3.31-7.56,0-9.8h0Z"/>
  </g>
</svg>